<mxfile host="app.diagrams.net" modified="2024-03-24T17:46:26.929Z" agent="Mozilla/5.0 (Windows NT 10.0; Win64; x64) AppleWebKit/537.36 (KHTML, like Gecko) Chrome/122.0.0.0 Safari/537.36" etag="G5uSZSYni-EsXIzmEUZW" version="21.3.8" type="device">
  <diagram name="Page-1" id="ff44883e-f642-bcb2-894b-16b3d25a3f0b">
    <mxGraphModel dx="1456" dy="1917" grid="1" gridSize="10" guides="1" tooltips="1" connect="1" arrows="1" fold="1" page="1" pageScale="1.5" pageWidth="1169" pageHeight="826" background="none" math="0" shadow="0">
      <root>
        <mxCell id="0" style=";html=1;" />
        <mxCell id="1" style=";html=1;" parent="0" />
        <mxCell id="pyP9cMPiVNIEUNAZ6Pnh-1" value="" style="rounded=0;whiteSpace=wrap;html=1;" vertex="1" parent="1">
          <mxGeometry x="20" y="30" width="120" height="90" as="geometry" />
        </mxCell>
        <mxCell id="pyP9cMPiVNIEUNAZ6Pnh-2" value="Επικοινωνία με τον πελάτη" style="rounded=0;whiteSpace=wrap;html=1;" vertex="1" parent="1">
          <mxGeometry x="20" y="30" width="120" height="30" as="geometry" />
        </mxCell>
        <mxCell id="pyP9cMPiVNIEUNAZ6Pnh-3" value="1" style="rounded=0;whiteSpace=wrap;html=1;" vertex="1" parent="1">
          <mxGeometry x="20" y="60" width="30" height="30" as="geometry" />
        </mxCell>
        <mxCell id="pyP9cMPiVNIEUNAZ6Pnh-5" value="3" style="whiteSpace=wrap;html=1;aspect=fixed;" vertex="1" parent="1">
          <mxGeometry x="49.5" y="60" width="30" height="30" as="geometry" />
        </mxCell>
        <mxCell id="pyP9cMPiVNIEUNAZ6Pnh-6" value="5" style="whiteSpace=wrap;html=1;aspect=fixed;" vertex="1" parent="1">
          <mxGeometry x="80" y="60" width="30" height="30" as="geometry" />
        </mxCell>
        <mxCell id="pyP9cMPiVNIEUNAZ6Pnh-7" value="10" style="whiteSpace=wrap;html=1;aspect=fixed;" vertex="1" parent="1">
          <mxGeometry x="110" y="60" width="30" height="30" as="geometry" />
        </mxCell>
        <mxCell id="pyP9cMPiVNIEUNAZ6Pnh-9" value="1 March 2024" style="rounded=0;whiteSpace=wrap;html=1;" vertex="1" parent="1">
          <mxGeometry x="20" y="90" width="60" height="30" as="geometry" />
        </mxCell>
        <mxCell id="pyP9cMPiVNIEUNAZ6Pnh-10" value="6 March 2024" style="rounded=0;whiteSpace=wrap;html=1;" vertex="1" parent="1">
          <mxGeometry x="80" y="90" width="60" height="30" as="geometry" />
        </mxCell>
        <mxCell id="pyP9cMPiVNIEUNAZ6Pnh-11" value="" style="rounded=0;whiteSpace=wrap;html=1;" vertex="1" parent="1">
          <mxGeometry x="170" y="30" width="120" height="90" as="geometry" />
        </mxCell>
        <mxCell id="pyP9cMPiVNIEUNAZ6Pnh-12" value="Ανάλυση Απαιτήσεων" style="rounded=0;whiteSpace=wrap;html=1;" vertex="1" parent="1">
          <mxGeometry x="170" y="30" width="120" height="30" as="geometry" />
        </mxCell>
        <mxCell id="pyP9cMPiVNIEUNAZ6Pnh-13" value="2" style="rounded=0;whiteSpace=wrap;html=1;" vertex="1" parent="1">
          <mxGeometry x="170" y="60" width="30" height="30" as="geometry" />
        </mxCell>
        <mxCell id="pyP9cMPiVNIEUNAZ6Pnh-14" value="3" style="whiteSpace=wrap;html=1;aspect=fixed;" vertex="1" parent="1">
          <mxGeometry x="200" y="60" width="30" height="30" as="geometry" />
        </mxCell>
        <mxCell id="pyP9cMPiVNIEUNAZ6Pnh-15" value="6" style="whiteSpace=wrap;html=1;aspect=fixed;" vertex="1" parent="1">
          <mxGeometry x="230" y="60" width="30" height="30" as="geometry" />
        </mxCell>
        <mxCell id="pyP9cMPiVNIEUNAZ6Pnh-16" value="8" style="whiteSpace=wrap;html=1;aspect=fixed;" vertex="1" parent="1">
          <mxGeometry x="260" y="60" width="30" height="30" as="geometry" />
        </mxCell>
        <mxCell id="pyP9cMPiVNIEUNAZ6Pnh-17" value="7 March 2024" style="rounded=0;whiteSpace=wrap;html=1;" vertex="1" parent="1">
          <mxGeometry x="170" y="90" width="60" height="30" as="geometry" />
        </mxCell>
        <mxCell id="pyP9cMPiVNIEUNAZ6Pnh-18" value="12 March 2024" style="rounded=0;whiteSpace=wrap;html=1;" vertex="1" parent="1">
          <mxGeometry x="230" y="90" width="60" height="30" as="geometry" />
        </mxCell>
        <mxCell id="pyP9cMPiVNIEUNAZ6Pnh-19" value="" style="rounded=0;whiteSpace=wrap;html=1;" vertex="1" parent="1">
          <mxGeometry x="318.25" y="30" width="120" height="90" as="geometry" />
        </mxCell>
        <mxCell id="pyP9cMPiVNIEUNAZ6Pnh-20" value="&lt;font style=&quot;font-size: 10px;&quot;&gt;Σχεδιασμός Λειτουργιών Εφαρμογής&lt;/font&gt;" style="rounded=0;whiteSpace=wrap;html=1;" vertex="1" parent="1">
          <mxGeometry x="318.25" y="30" width="120" height="30" as="geometry" />
        </mxCell>
        <mxCell id="pyP9cMPiVNIEUNAZ6Pnh-21" value="3" style="rounded=0;whiteSpace=wrap;html=1;" vertex="1" parent="1">
          <mxGeometry x="318.25" y="60" width="30" height="30" as="geometry" />
        </mxCell>
        <mxCell id="pyP9cMPiVNIEUNAZ6Pnh-22" value="20" style="whiteSpace=wrap;html=1;aspect=fixed;" vertex="1" parent="1">
          <mxGeometry x="348.25" y="60" width="30" height="30" as="geometry" />
        </mxCell>
        <mxCell id="pyP9cMPiVNIEUNAZ6Pnh-23" value="30" style="whiteSpace=wrap;html=1;aspect=fixed;" vertex="1" parent="1">
          <mxGeometry x="378.25" y="60" width="30" height="30" as="geometry" />
        </mxCell>
        <mxCell id="pyP9cMPiVNIEUNAZ6Pnh-24" value="40" style="whiteSpace=wrap;html=1;aspect=fixed;" vertex="1" parent="1">
          <mxGeometry x="408.25" y="60" width="30" height="30" as="geometry" />
        </mxCell>
        <mxCell id="pyP9cMPiVNIEUNAZ6Pnh-25" value="13 March 2024" style="rounded=0;whiteSpace=wrap;html=1;" vertex="1" parent="1">
          <mxGeometry x="318.25" y="90" width="60" height="30" as="geometry" />
        </mxCell>
        <mxCell id="pyP9cMPiVNIEUNAZ6Pnh-26" value="12 April 2024" style="rounded=0;whiteSpace=wrap;html=1;" vertex="1" parent="1">
          <mxGeometry x="378.25" y="90" width="60" height="30" as="geometry" />
        </mxCell>
        <mxCell id="pyP9cMPiVNIEUNAZ6Pnh-27" value="" style="rounded=0;whiteSpace=wrap;html=1;" vertex="1" parent="1">
          <mxGeometry x="5.119999999999999" y="435" width="120" height="90" as="geometry" />
        </mxCell>
        <mxCell id="pyP9cMPiVNIEUNAZ6Pnh-28" value="Παράδωση σε&lt;br&gt;Πελάτη" style="rounded=0;whiteSpace=wrap;html=1;" vertex="1" parent="1">
          <mxGeometry x="5.119999999999999" y="435" width="120" height="30" as="geometry" />
        </mxCell>
        <mxCell id="pyP9cMPiVNIEUNAZ6Pnh-29" value="14" style="rounded=0;whiteSpace=wrap;html=1;" vertex="1" parent="1">
          <mxGeometry x="5.119999999999999" y="465" width="30" height="30" as="geometry" />
        </mxCell>
        <mxCell id="pyP9cMPiVNIEUNAZ6Pnh-30" value="3" style="whiteSpace=wrap;html=1;aspect=fixed;" vertex="1" parent="1">
          <mxGeometry x="35.12" y="465" width="30" height="30" as="geometry" />
        </mxCell>
        <mxCell id="pyP9cMPiVNIEUNAZ6Pnh-31" value="5" style="whiteSpace=wrap;html=1;aspect=fixed;" vertex="1" parent="1">
          <mxGeometry x="65.11999999999999" y="465" width="30" height="30" as="geometry" />
        </mxCell>
        <mxCell id="pyP9cMPiVNIEUNAZ6Pnh-32" value="10" style="whiteSpace=wrap;html=1;aspect=fixed;" vertex="1" parent="1">
          <mxGeometry x="95.11999999999999" y="465" width="30" height="30" as="geometry" />
        </mxCell>
        <mxCell id="pyP9cMPiVNIEUNAZ6Pnh-33" value="8 Dec 2024" style="rounded=0;whiteSpace=wrap;html=1;" vertex="1" parent="1">
          <mxGeometry x="3.869999999999999" y="496" width="60" height="29" as="geometry" />
        </mxCell>
        <mxCell id="pyP9cMPiVNIEUNAZ6Pnh-34" value="12 Dec 2024" style="rounded=0;whiteSpace=wrap;html=1;" vertex="1" parent="1">
          <mxGeometry x="63.87" y="495" width="60" height="30" as="geometry" />
        </mxCell>
        <mxCell id="pyP9cMPiVNIEUNAZ6Pnh-35" value="" style="rounded=0;whiteSpace=wrap;html=1;" vertex="1" parent="1">
          <mxGeometry x="318.25" y="310" width="120" height="90" as="geometry" />
        </mxCell>
        <mxCell id="pyP9cMPiVNIEUNAZ6Pnh-36" value="Διώρθωση Λαθών από το Testing" style="rounded=0;whiteSpace=wrap;html=1;" vertex="1" parent="1">
          <mxGeometry x="318.25" y="310" width="120" height="30" as="geometry" />
        </mxCell>
        <mxCell id="pyP9cMPiVNIEUNAZ6Pnh-37" value="12" style="rounded=0;whiteSpace=wrap;html=1;" vertex="1" parent="1">
          <mxGeometry x="318.25" y="340" width="30" height="30" as="geometry" />
        </mxCell>
        <mxCell id="pyP9cMPiVNIEUNAZ6Pnh-38" value="30" style="whiteSpace=wrap;html=1;aspect=fixed;" vertex="1" parent="1">
          <mxGeometry x="348.25" y="340" width="30" height="30" as="geometry" />
        </mxCell>
        <mxCell id="pyP9cMPiVNIEUNAZ6Pnh-39" value="60" style="whiteSpace=wrap;html=1;aspect=fixed;" vertex="1" parent="1">
          <mxGeometry x="378.25" y="340" width="30" height="30" as="geometry" />
        </mxCell>
        <mxCell id="pyP9cMPiVNIEUNAZ6Pnh-40" value="90" style="whiteSpace=wrap;html=1;aspect=fixed;" vertex="1" parent="1">
          <mxGeometry x="408.25" y="340" width="30" height="30" as="geometry" />
        </mxCell>
        <mxCell id="pyP9cMPiVNIEUNAZ6Pnh-41" value="18 Sept 2024" style="rounded=0;whiteSpace=wrap;html=1;" vertex="1" parent="1">
          <mxGeometry x="318.25" y="370" width="60" height="30" as="geometry" />
        </mxCell>
        <mxCell id="pyP9cMPiVNIEUNAZ6Pnh-42" value="17 Nov 2024" style="rounded=0;whiteSpace=wrap;html=1;" vertex="1" parent="1">
          <mxGeometry x="378.25" y="370" width="60" height="30" as="geometry" />
        </mxCell>
        <mxCell id="pyP9cMPiVNIEUNAZ6Pnh-51" value="" style="rounded=0;whiteSpace=wrap;html=1;" vertex="1" parent="1">
          <mxGeometry x="482" y="-20" width="120" height="90" as="geometry" />
        </mxCell>
        <mxCell id="pyP9cMPiVNIEUNAZ6Pnh-52" value="Σχεδιασμός Βάσης Δεδομένων" style="rounded=0;whiteSpace=wrap;html=1;" vertex="1" parent="1">
          <mxGeometry x="482" y="-20" width="120" height="30" as="geometry" />
        </mxCell>
        <mxCell id="pyP9cMPiVNIEUNAZ6Pnh-53" value="5" style="rounded=0;whiteSpace=wrap;html=1;" vertex="1" parent="1">
          <mxGeometry x="482" y="10" width="30" height="30" as="geometry" />
        </mxCell>
        <mxCell id="pyP9cMPiVNIEUNAZ6Pnh-54" value="10" style="whiteSpace=wrap;html=1;aspect=fixed;" vertex="1" parent="1">
          <mxGeometry x="512" y="10" width="30" height="30" as="geometry" />
        </mxCell>
        <mxCell id="pyP9cMPiVNIEUNAZ6Pnh-55" value="20" style="whiteSpace=wrap;html=1;aspect=fixed;" vertex="1" parent="1">
          <mxGeometry x="542" y="10" width="30" height="30" as="geometry" />
        </mxCell>
        <mxCell id="pyP9cMPiVNIEUNAZ6Pnh-56" value="30" style="whiteSpace=wrap;html=1;aspect=fixed;" vertex="1" parent="1">
          <mxGeometry x="572" y="10" width="30" height="30" as="geometry" />
        </mxCell>
        <mxCell id="pyP9cMPiVNIEUNAZ6Pnh-57" value="13 April 2024" style="rounded=0;whiteSpace=wrap;html=1;" vertex="1" parent="1">
          <mxGeometry x="482" y="40" width="60" height="30" as="geometry" />
        </mxCell>
        <mxCell id="pyP9cMPiVNIEUNAZ6Pnh-58" value="2 May 2024" style="rounded=0;whiteSpace=wrap;html=1;" vertex="1" parent="1">
          <mxGeometry x="542" y="40" width="60" height="30" as="geometry" />
        </mxCell>
        <mxCell id="pyP9cMPiVNIEUNAZ6Pnh-59" value="" style="rounded=0;whiteSpace=wrap;html=1;" vertex="1" parent="1">
          <mxGeometry x="477.5" y="100" width="120" height="90" as="geometry" />
        </mxCell>
        <mxCell id="pyP9cMPiVNIEUNAZ6Pnh-60" value="Σχεδιασμός UI" style="rounded=0;whiteSpace=wrap;html=1;" vertex="1" parent="1">
          <mxGeometry x="477.5" y="100" width="120" height="30" as="geometry" />
        </mxCell>
        <mxCell id="pyP9cMPiVNIEUNAZ6Pnh-61" value="4" style="rounded=0;whiteSpace=wrap;html=1;" vertex="1" parent="1">
          <mxGeometry x="477.5" y="130" width="30" height="30" as="geometry" />
        </mxCell>
        <mxCell id="pyP9cMPiVNIEUNAZ6Pnh-62" value="20" style="whiteSpace=wrap;html=1;aspect=fixed;" vertex="1" parent="1">
          <mxGeometry x="507.5" y="130" width="30" height="30" as="geometry" />
        </mxCell>
        <mxCell id="pyP9cMPiVNIEUNAZ6Pnh-63" value="30" style="whiteSpace=wrap;html=1;aspect=fixed;" vertex="1" parent="1">
          <mxGeometry x="537.5" y="130" width="30" height="30" as="geometry" />
        </mxCell>
        <mxCell id="pyP9cMPiVNIEUNAZ6Pnh-64" value="40" style="whiteSpace=wrap;html=1;aspect=fixed;" vertex="1" parent="1">
          <mxGeometry x="567.5" y="130" width="30" height="30" as="geometry" />
        </mxCell>
        <mxCell id="pyP9cMPiVNIEUNAZ6Pnh-65" value="13 April 2024" style="rounded=0;whiteSpace=wrap;html=1;" vertex="1" parent="1">
          <mxGeometry x="477.5" y="160" width="60" height="30" as="geometry" />
        </mxCell>
        <mxCell id="pyP9cMPiVNIEUNAZ6Pnh-66" value="12 May 2024" style="rounded=0;whiteSpace=wrap;html=1;" vertex="1" parent="1">
          <mxGeometry x="537.5" y="160" width="60" height="30" as="geometry" />
        </mxCell>
        <mxCell id="pyP9cMPiVNIEUNAZ6Pnh-72" value="" style="rounded=0;whiteSpace=wrap;html=1;" vertex="1" parent="1">
          <mxGeometry x="660" y="50" width="120" height="90" as="geometry" />
        </mxCell>
        <mxCell id="pyP9cMPiVNIEUNAZ6Pnh-73" value="Παρουσίαση σε πελάτη" style="rounded=0;whiteSpace=wrap;html=1;" vertex="1" parent="1">
          <mxGeometry x="660" y="50" width="120" height="30" as="geometry" />
        </mxCell>
        <mxCell id="pyP9cMPiVNIEUNAZ6Pnh-74" value="6" style="rounded=0;whiteSpace=wrap;html=1;" vertex="1" parent="1">
          <mxGeometry x="660" y="80" width="30" height="30" as="geometry" />
        </mxCell>
        <mxCell id="pyP9cMPiVNIEUNAZ6Pnh-75" value="3" style="whiteSpace=wrap;html=1;aspect=fixed;" vertex="1" parent="1">
          <mxGeometry x="690" y="80" width="30" height="30" as="geometry" />
        </mxCell>
        <mxCell id="pyP9cMPiVNIEUNAZ6Pnh-76" value="5" style="whiteSpace=wrap;html=1;aspect=fixed;" vertex="1" parent="1">
          <mxGeometry x="720" y="80" width="30" height="30" as="geometry" />
        </mxCell>
        <mxCell id="pyP9cMPiVNIEUNAZ6Pnh-197" style="edgeStyle=orthogonalEdgeStyle;rounded=0;orthogonalLoop=1;jettySize=auto;html=1;exitX=1;exitY=0.5;exitDx=0;exitDy=0;entryX=0.5;entryY=0;entryDx=0;entryDy=0;strokeColor=#FF3333;" edge="1" parent="1" source="pyP9cMPiVNIEUNAZ6Pnh-77" target="pyP9cMPiVNIEUNAZ6Pnh-85">
          <mxGeometry relative="1" as="geometry" />
        </mxCell>
        <mxCell id="pyP9cMPiVNIEUNAZ6Pnh-77" value="10" style="whiteSpace=wrap;html=1;aspect=fixed;" vertex="1" parent="1">
          <mxGeometry x="750" y="80" width="30" height="30" as="geometry" />
        </mxCell>
        <mxCell id="pyP9cMPiVNIEUNAZ6Pnh-78" value="13 May 2024" style="rounded=0;whiteSpace=wrap;html=1;" vertex="1" parent="1">
          <mxGeometry x="660" y="110" width="60" height="30" as="geometry" />
        </mxCell>
        <mxCell id="pyP9cMPiVNIEUNAZ6Pnh-79" value="17 May 2024" style="rounded=0;whiteSpace=wrap;html=1;" vertex="1" parent="1">
          <mxGeometry x="720" y="110" width="60" height="30" as="geometry" />
        </mxCell>
        <mxCell id="pyP9cMPiVNIEUNAZ6Pnh-85" value="" style="rhombus;whiteSpace=wrap;html=1;fillColor=#FBFF7A;" vertex="1" parent="1">
          <mxGeometry x="837" y="300" width="80" height="80" as="geometry" />
        </mxCell>
        <mxCell id="pyP9cMPiVNIEUNAZ6Pnh-95" value="" style="rounded=0;whiteSpace=wrap;html=1;" vertex="1" parent="1">
          <mxGeometry x="660" y="295" width="120" height="90" as="geometry" />
        </mxCell>
        <mxCell id="pyP9cMPiVNIEUNAZ6Pnh-96" value="&lt;font style=&quot;font-size: 10px;&quot;&gt;Ανάπτυξη Λειτουργιών Εφαρμογής&lt;/font&gt;" style="rounded=0;whiteSpace=wrap;html=1;" vertex="1" parent="1">
          <mxGeometry x="660" y="295" width="120" height="30" as="geometry" />
        </mxCell>
        <mxCell id="pyP9cMPiVNIEUNAZ6Pnh-97" value="8" style="rounded=0;whiteSpace=wrap;html=1;" vertex="1" parent="1">
          <mxGeometry x="660" y="325" width="30" height="30" as="geometry" />
        </mxCell>
        <mxCell id="pyP9cMPiVNIEUNAZ6Pnh-98" value="60" style="whiteSpace=wrap;html=1;aspect=fixed;" vertex="1" parent="1">
          <mxGeometry x="690" y="325" width="30" height="30" as="geometry" />
        </mxCell>
        <mxCell id="pyP9cMPiVNIEUNAZ6Pnh-99" value="70" style="whiteSpace=wrap;html=1;aspect=fixed;" vertex="1" parent="1">
          <mxGeometry x="720" y="325" width="30" height="30" as="geometry" />
        </mxCell>
        <mxCell id="pyP9cMPiVNIEUNAZ6Pnh-100" value="90" style="whiteSpace=wrap;html=1;aspect=fixed;" vertex="1" parent="1">
          <mxGeometry x="750" y="325" width="30" height="30" as="geometry" />
        </mxCell>
        <mxCell id="pyP9cMPiVNIEUNAZ6Pnh-101" value="18 May 2024" style="rounded=0;whiteSpace=wrap;html=1;" vertex="1" parent="1">
          <mxGeometry x="660" y="355" width="60" height="30" as="geometry" />
        </mxCell>
        <mxCell id="pyP9cMPiVNIEUNAZ6Pnh-102" value="27 July 2024" style="rounded=0;whiteSpace=wrap;html=1;" vertex="1" parent="1">
          <mxGeometry x="720" y="355" width="60" height="30" as="geometry" />
        </mxCell>
        <mxCell id="pyP9cMPiVNIEUNAZ6Pnh-103" value="" style="rounded=0;whiteSpace=wrap;html=1;" vertex="1" parent="1">
          <mxGeometry x="660" y="405" width="120" height="90" as="geometry" />
        </mxCell>
        <mxCell id="pyP9cMPiVNIEUNAZ6Pnh-104" value="Ανάπτυξη Βάσης Δεδομένων" style="rounded=0;whiteSpace=wrap;html=1;" vertex="1" parent="1">
          <mxGeometry x="660" y="405" width="120" height="30" as="geometry" />
        </mxCell>
        <mxCell id="pyP9cMPiVNIEUNAZ6Pnh-105" value="9" style="rounded=0;whiteSpace=wrap;html=1;" vertex="1" parent="1">
          <mxGeometry x="660" y="435" width="30" height="30" as="geometry" />
        </mxCell>
        <mxCell id="pyP9cMPiVNIEUNAZ6Pnh-106" value="10" style="whiteSpace=wrap;html=1;aspect=fixed;" vertex="1" parent="1">
          <mxGeometry x="690" y="435" width="30" height="30" as="geometry" />
        </mxCell>
        <mxCell id="pyP9cMPiVNIEUNAZ6Pnh-107" value="20" style="whiteSpace=wrap;html=1;aspect=fixed;" vertex="1" parent="1">
          <mxGeometry x="720" y="435" width="30" height="30" as="geometry" />
        </mxCell>
        <mxCell id="pyP9cMPiVNIEUNAZ6Pnh-108" value="30" style="whiteSpace=wrap;html=1;aspect=fixed;" vertex="1" parent="1">
          <mxGeometry x="750" y="435" width="30" height="30" as="geometry" />
        </mxCell>
        <mxCell id="pyP9cMPiVNIEUNAZ6Pnh-109" value="18 May 2024" style="rounded=0;whiteSpace=wrap;html=1;" vertex="1" parent="1">
          <mxGeometry x="660" y="465" width="60" height="30" as="geometry" />
        </mxCell>
        <mxCell id="pyP9cMPiVNIEUNAZ6Pnh-110" value="7 June 2024" style="rounded=0;whiteSpace=wrap;html=1;" vertex="1" parent="1">
          <mxGeometry x="720" y="465" width="60" height="30" as="geometry" />
        </mxCell>
        <mxCell id="pyP9cMPiVNIEUNAZ6Pnh-111" value="" style="rounded=0;whiteSpace=wrap;html=1;" vertex="1" parent="1">
          <mxGeometry x="660" y="185" width="120" height="90" as="geometry" />
        </mxCell>
        <mxCell id="pyP9cMPiVNIEUNAZ6Pnh-112" value="Υλοποίηση GUI" style="rounded=0;whiteSpace=wrap;html=1;" vertex="1" parent="1">
          <mxGeometry x="660" y="185" width="120" height="30" as="geometry" />
        </mxCell>
        <mxCell id="pyP9cMPiVNIEUNAZ6Pnh-113" value="7" style="rounded=0;whiteSpace=wrap;html=1;" vertex="1" parent="1">
          <mxGeometry x="660" y="215" width="30" height="30" as="geometry" />
        </mxCell>
        <mxCell id="pyP9cMPiVNIEUNAZ6Pnh-114" value="80" style="whiteSpace=wrap;html=1;aspect=fixed;" vertex="1" parent="1">
          <mxGeometry x="690" y="215" width="30" height="30" as="geometry" />
        </mxCell>
        <mxCell id="pyP9cMPiVNIEUNAZ6Pnh-115" value="90" style="whiteSpace=wrap;html=1;aspect=fixed;" vertex="1" parent="1">
          <mxGeometry x="720" y="215" width="30" height="30" as="geometry" />
        </mxCell>
        <mxCell id="pyP9cMPiVNIEUNAZ6Pnh-116" value="100" style="whiteSpace=wrap;html=1;aspect=fixed;" vertex="1" parent="1">
          <mxGeometry x="750" y="215" width="30" height="30" as="geometry" />
        </mxCell>
        <mxCell id="pyP9cMPiVNIEUNAZ6Pnh-117" value="18 May 2024" style="rounded=0;whiteSpace=wrap;html=1;" vertex="1" parent="1">
          <mxGeometry x="660" y="245" width="60" height="30" as="geometry" />
        </mxCell>
        <mxCell id="pyP9cMPiVNIEUNAZ6Pnh-118" value="17 August 2024" style="rounded=0;whiteSpace=wrap;html=1;" vertex="1" parent="1">
          <mxGeometry x="720" y="245" width="60" height="30" as="geometry" />
        </mxCell>
        <mxCell id="pyP9cMPiVNIEUNAZ6Pnh-120" value="" style="rounded=0;whiteSpace=wrap;html=1;" vertex="1" parent="1">
          <mxGeometry x="477.5" y="375" width="120" height="90" as="geometry" />
        </mxCell>
        <mxCell id="pyP9cMPiVNIEUNAZ6Pnh-121" value="Black Box Testing" style="rounded=0;whiteSpace=wrap;html=1;" vertex="1" parent="1">
          <mxGeometry x="477.5" y="375" width="120" height="30" as="geometry" />
        </mxCell>
        <mxCell id="pyP9cMPiVNIEUNAZ6Pnh-122" value="11" style="rounded=0;whiteSpace=wrap;html=1;" vertex="1" parent="1">
          <mxGeometry x="477.5" y="405" width="30" height="30" as="geometry" />
        </mxCell>
        <mxCell id="pyP9cMPiVNIEUNAZ6Pnh-123" value="15" style="whiteSpace=wrap;html=1;aspect=fixed;" vertex="1" parent="1">
          <mxGeometry x="507.5" y="405" width="30" height="30" as="geometry" />
        </mxCell>
        <mxCell id="pyP9cMPiVNIEUNAZ6Pnh-124" value="20" style="whiteSpace=wrap;html=1;aspect=fixed;" vertex="1" parent="1">
          <mxGeometry x="537.5" y="405" width="30" height="30" as="geometry" />
        </mxCell>
        <mxCell id="pyP9cMPiVNIEUNAZ6Pnh-125" value="25" style="whiteSpace=wrap;html=1;aspect=fixed;" vertex="1" parent="1">
          <mxGeometry x="567.5" y="405" width="30" height="30" as="geometry" />
        </mxCell>
        <mxCell id="pyP9cMPiVNIEUNAZ6Pnh-126" value="18 August 2024" style="rounded=0;whiteSpace=wrap;html=1;" vertex="1" parent="1">
          <mxGeometry x="477.5" y="435" width="60" height="30" as="geometry" />
        </mxCell>
        <mxCell id="pyP9cMPiVNIEUNAZ6Pnh-127" value="7 Sept 2024" style="rounded=0;whiteSpace=wrap;html=1;" vertex="1" parent="1">
          <mxGeometry x="537.5" y="435" width="60" height="30" as="geometry" />
        </mxCell>
        <mxCell id="pyP9cMPiVNIEUNAZ6Pnh-135" value="" style="rounded=0;whiteSpace=wrap;html=1;" vertex="1" parent="1">
          <mxGeometry x="477.5" y="255" width="120" height="90" as="geometry" />
        </mxCell>
        <mxCell id="pyP9cMPiVNIEUNAZ6Pnh-136" value="White Box Testing" style="rounded=0;whiteSpace=wrap;html=1;" vertex="1" parent="1">
          <mxGeometry x="477.5" y="255" width="120" height="30" as="geometry" />
        </mxCell>
        <mxCell id="pyP9cMPiVNIEUNAZ6Pnh-137" value="10" style="rounded=0;whiteSpace=wrap;html=1;" vertex="1" parent="1">
          <mxGeometry x="477.5" y="285" width="30" height="30" as="geometry" />
        </mxCell>
        <mxCell id="pyP9cMPiVNIEUNAZ6Pnh-138" value="25" style="whiteSpace=wrap;html=1;aspect=fixed;" vertex="1" parent="1">
          <mxGeometry x="507.5" y="285" width="30" height="30" as="geometry" />
        </mxCell>
        <mxCell id="pyP9cMPiVNIEUNAZ6Pnh-139" value="30" style="whiteSpace=wrap;html=1;aspect=fixed;" vertex="1" parent="1">
          <mxGeometry x="537.5" y="285" width="30" height="30" as="geometry" />
        </mxCell>
        <mxCell id="pyP9cMPiVNIEUNAZ6Pnh-140" value="35" style="whiteSpace=wrap;html=1;aspect=fixed;" vertex="1" parent="1">
          <mxGeometry x="567.5" y="285" width="30" height="30" as="geometry" />
        </mxCell>
        <mxCell id="pyP9cMPiVNIEUNAZ6Pnh-141" value="18 August 2024" style="rounded=0;whiteSpace=wrap;html=1;" vertex="1" parent="1">
          <mxGeometry x="477.5" y="315" width="60" height="30" as="geometry" />
        </mxCell>
        <mxCell id="pyP9cMPiVNIEUNAZ6Pnh-142" value="17 Sept 2024" style="rounded=0;whiteSpace=wrap;html=1;" vertex="1" parent="1">
          <mxGeometry x="537.5" y="315" width="60" height="30" as="geometry" />
        </mxCell>
        <mxCell id="pyP9cMPiVNIEUNAZ6Pnh-150" value="" style="rhombus;whiteSpace=wrap;html=1;fillColor=#FBFF7A;" vertex="1" parent="1">
          <mxGeometry x="24.5" y="315" width="80" height="80" as="geometry" />
        </mxCell>
        <mxCell id="pyP9cMPiVNIEUNAZ6Pnh-156" value="" style="rounded=0;whiteSpace=wrap;html=1;" vertex="1" parent="1">
          <mxGeometry x="155" y="310" width="120" height="90" as="geometry" />
        </mxCell>
        <mxCell id="pyP9cMPiVNIEUNAZ6Pnh-157" value="Έλεγχος Ποιότητας Κώδικα" style="rounded=0;whiteSpace=wrap;html=1;" vertex="1" parent="1">
          <mxGeometry x="155" y="310" width="120" height="30" as="geometry" />
        </mxCell>
        <mxCell id="pyP9cMPiVNIEUNAZ6Pnh-158" value="13" style="rounded=0;whiteSpace=wrap;html=1;" vertex="1" parent="1">
          <mxGeometry x="155" y="340" width="30" height="30" as="geometry" />
        </mxCell>
        <mxCell id="pyP9cMPiVNIEUNAZ6Pnh-159" value="10" style="whiteSpace=wrap;html=1;aspect=fixed;" vertex="1" parent="1">
          <mxGeometry x="185" y="340" width="30" height="30" as="geometry" />
        </mxCell>
        <mxCell id="pyP9cMPiVNIEUNAZ6Pnh-160" value="20" style="whiteSpace=wrap;html=1;aspect=fixed;" vertex="1" parent="1">
          <mxGeometry x="215" y="340" width="30" height="30" as="geometry" />
        </mxCell>
        <mxCell id="pyP9cMPiVNIEUNAZ6Pnh-161" value="30" style="whiteSpace=wrap;html=1;aspect=fixed;" vertex="1" parent="1">
          <mxGeometry x="245" y="340" width="30" height="30" as="geometry" />
        </mxCell>
        <mxCell id="pyP9cMPiVNIEUNAZ6Pnh-162" value="18 Nov 2024" style="rounded=0;whiteSpace=wrap;html=1;" vertex="1" parent="1">
          <mxGeometry x="155" y="370" width="60" height="30" as="geometry" />
        </mxCell>
        <mxCell id="pyP9cMPiVNIEUNAZ6Pnh-163" value="7 Dec 2024" style="rounded=0;whiteSpace=wrap;html=1;" vertex="1" parent="1">
          <mxGeometry x="215" y="370" width="60" height="30" as="geometry" />
        </mxCell>
        <mxCell id="pyP9cMPiVNIEUNAZ6Pnh-168" value="" style="endArrow=classic;html=1;rounded=0;exitX=1;exitY=0.5;exitDx=0;exitDy=0;entryX=0;entryY=0.5;entryDx=0;entryDy=0;" edge="1" parent="1" source="pyP9cMPiVNIEUNAZ6Pnh-56" target="pyP9cMPiVNIEUNAZ6Pnh-74">
          <mxGeometry width="50" height="50" relative="1" as="geometry">
            <mxPoint x="373" y="480" as="sourcePoint" />
            <mxPoint x="450" y="520" as="targetPoint" />
          </mxGeometry>
        </mxCell>
        <mxCell id="pyP9cMPiVNIEUNAZ6Pnh-179" value="" style="endArrow=classic;html=1;rounded=0;exitX=1;exitY=0.75;exitDx=0;exitDy=0;entryX=0;entryY=0.75;entryDx=0;entryDy=0;strokeColor=#FF3333;" edge="1" parent="1" source="pyP9cMPiVNIEUNAZ6Pnh-7" target="pyP9cMPiVNIEUNAZ6Pnh-13">
          <mxGeometry width="50" height="50" relative="1" as="geometry">
            <mxPoint x="380" y="330" as="sourcePoint" />
            <mxPoint x="430" y="280" as="targetPoint" />
          </mxGeometry>
        </mxCell>
        <mxCell id="pyP9cMPiVNIEUNAZ6Pnh-180" value="" style="endArrow=classic;html=1;rounded=0;exitX=1;exitY=0.75;exitDx=0;exitDy=0;entryX=0;entryY=0.75;entryDx=0;entryDy=0;strokeColor=#FC3232;" edge="1" parent="1" source="pyP9cMPiVNIEUNAZ6Pnh-16" target="pyP9cMPiVNIEUNAZ6Pnh-21">
          <mxGeometry width="50" height="50" relative="1" as="geometry">
            <mxPoint x="150" y="93" as="sourcePoint" />
            <mxPoint x="180" y="93" as="targetPoint" />
          </mxGeometry>
        </mxCell>
        <mxCell id="pyP9cMPiVNIEUNAZ6Pnh-181" value="" style="endArrow=classic;html=1;rounded=0;exitX=1;exitY=0.75;exitDx=0;exitDy=0;" edge="1" parent="1" source="pyP9cMPiVNIEUNAZ6Pnh-24">
          <mxGeometry width="50" height="50" relative="1" as="geometry">
            <mxPoint x="160" y="103" as="sourcePoint" />
            <mxPoint x="480" y="30" as="targetPoint" />
          </mxGeometry>
        </mxCell>
        <mxCell id="pyP9cMPiVNIEUNAZ6Pnh-182" value="" style="endArrow=classic;html=1;rounded=0;exitX=0;exitY=0.5;exitDx=0;exitDy=0;entryX=1;entryY=0;entryDx=0;entryDy=0;strokeColor=#FF3333;" edge="1" parent="1" source="pyP9cMPiVNIEUNAZ6Pnh-113" target="pyP9cMPiVNIEUNAZ6Pnh-140">
          <mxGeometry width="50" height="50" relative="1" as="geometry">
            <mxPoint x="170" y="113" as="sourcePoint" />
            <mxPoint x="200" y="113" as="targetPoint" />
          </mxGeometry>
        </mxCell>
        <mxCell id="pyP9cMPiVNIEUNAZ6Pnh-184" value="" style="endArrow=classic;html=1;rounded=0;exitX=1;exitY=0.75;exitDx=0;exitDy=0;entryX=0;entryY=0.75;entryDx=0;entryDy=0;strokeColor=#F73131;" edge="1" parent="1" source="pyP9cMPiVNIEUNAZ6Pnh-64" target="pyP9cMPiVNIEUNAZ6Pnh-74">
          <mxGeometry width="50" height="50" relative="1" as="geometry">
            <mxPoint x="190" y="133" as="sourcePoint" />
            <mxPoint x="220" y="133" as="targetPoint" />
          </mxGeometry>
        </mxCell>
        <mxCell id="pyP9cMPiVNIEUNAZ6Pnh-185" value="" style="endArrow=classic;html=1;rounded=0;exitX=1;exitY=0.75;exitDx=0;exitDy=0;entryX=0;entryY=0.5;entryDx=0;entryDy=0;strokeColor=#FF3333;" edge="1" parent="1" source="pyP9cMPiVNIEUNAZ6Pnh-24" target="pyP9cMPiVNIEUNAZ6Pnh-61">
          <mxGeometry width="50" height="50" relative="1" as="geometry">
            <mxPoint x="200" y="143" as="sourcePoint" />
            <mxPoint x="230" y="143" as="targetPoint" />
          </mxGeometry>
        </mxCell>
        <mxCell id="pyP9cMPiVNIEUNAZ6Pnh-186" value="" style="endArrow=classic;html=1;rounded=0;exitX=0;exitY=0.5;exitDx=0;exitDy=0;entryX=1;entryY=0.75;entryDx=0;entryDy=0;" edge="1" parent="1" source="pyP9cMPiVNIEUNAZ6Pnh-113" target="pyP9cMPiVNIEUNAZ6Pnh-121">
          <mxGeometry width="50" height="50" relative="1" as="geometry">
            <mxPoint x="670" y="240" as="sourcePoint" />
            <mxPoint x="600" y="420" as="targetPoint" />
          </mxGeometry>
        </mxCell>
        <mxCell id="pyP9cMPiVNIEUNAZ6Pnh-187" value="" style="endArrow=classic;html=1;rounded=0;exitX=0;exitY=0.75;exitDx=0;exitDy=0;entryX=1;entryY=0.5;entryDx=0;entryDy=0;" edge="1" parent="1" source="pyP9cMPiVNIEUNAZ6Pnh-97" target="pyP9cMPiVNIEUNAZ6Pnh-125">
          <mxGeometry width="50" height="50" relative="1" as="geometry">
            <mxPoint x="680" y="250" as="sourcePoint" />
            <mxPoint x="617" y="320" as="targetPoint" />
          </mxGeometry>
        </mxCell>
        <mxCell id="pyP9cMPiVNIEUNAZ6Pnh-188" value="" style="endArrow=classic;html=1;rounded=0;exitX=0;exitY=0.75;exitDx=0;exitDy=0;entryX=1;entryY=0.75;entryDx=0;entryDy=0;" edge="1" parent="1" source="pyP9cMPiVNIEUNAZ6Pnh-105" target="pyP9cMPiVNIEUNAZ6Pnh-125">
          <mxGeometry width="50" height="50" relative="1" as="geometry">
            <mxPoint x="690" y="260" as="sourcePoint" />
            <mxPoint x="620" y="440" as="targetPoint" />
          </mxGeometry>
        </mxCell>
        <mxCell id="pyP9cMPiVNIEUNAZ6Pnh-190" value="" style="endArrow=classic;html=1;rounded=0;exitX=0;exitY=0.75;exitDx=0;exitDy=0;entryX=1;entryY=0.75;entryDx=0;entryDy=0;" edge="1" parent="1" source="pyP9cMPiVNIEUNAZ6Pnh-105" target="pyP9cMPiVNIEUNAZ6Pnh-140">
          <mxGeometry width="50" height="50" relative="1" as="geometry">
            <mxPoint x="670" y="240" as="sourcePoint" />
            <mxPoint x="590" y="210" as="targetPoint" />
          </mxGeometry>
        </mxCell>
        <mxCell id="pyP9cMPiVNIEUNAZ6Pnh-191" value="" style="endArrow=classic;html=1;rounded=0;entryX=1;entryY=0.25;entryDx=0;entryDy=0;" edge="1" parent="1" target="pyP9cMPiVNIEUNAZ6Pnh-140">
          <mxGeometry width="50" height="50" relative="1" as="geometry">
            <mxPoint x="660" y="350" as="sourcePoint" />
            <mxPoint x="600" y="300" as="targetPoint" />
          </mxGeometry>
        </mxCell>
        <mxCell id="pyP9cMPiVNIEUNAZ6Pnh-192" value="" style="endArrow=classic;html=1;rounded=0;exitX=0;exitY=0.75;exitDx=0;exitDy=0;entryX=1;entryY=0.5;entryDx=0;entryDy=0;strokeColor=#FC3232;" edge="1" parent="1" source="pyP9cMPiVNIEUNAZ6Pnh-137" target="pyP9cMPiVNIEUNAZ6Pnh-40">
          <mxGeometry width="50" height="50" relative="1" as="geometry">
            <mxPoint x="690" y="260" as="sourcePoint" />
            <mxPoint x="627" y="330" as="targetPoint" />
          </mxGeometry>
        </mxCell>
        <mxCell id="pyP9cMPiVNIEUNAZ6Pnh-193" value="" style="endArrow=classic;html=1;rounded=0;exitX=0;exitY=0.75;exitDx=0;exitDy=0;entryX=1;entryY=0.75;entryDx=0;entryDy=0;" edge="1" parent="1" source="pyP9cMPiVNIEUNAZ6Pnh-122" target="pyP9cMPiVNIEUNAZ6Pnh-40">
          <mxGeometry width="50" height="50" relative="1" as="geometry">
            <mxPoint x="670" y="468" as="sourcePoint" />
            <mxPoint x="607" y="438" as="targetPoint" />
          </mxGeometry>
        </mxCell>
        <mxCell id="pyP9cMPiVNIEUNAZ6Pnh-194" value="" style="endArrow=classic;html=1;rounded=0;exitX=0;exitY=0.5;exitDx=0;exitDy=0;entryX=1;entryY=0.5;entryDx=0;entryDy=0;strokeColor=#FF3333;" edge="1" parent="1" source="pyP9cMPiVNIEUNAZ6Pnh-37" target="pyP9cMPiVNIEUNAZ6Pnh-161">
          <mxGeometry width="50" height="50" relative="1" as="geometry">
            <mxPoint x="680" y="478" as="sourcePoint" />
            <mxPoint x="617" y="448" as="targetPoint" />
          </mxGeometry>
        </mxCell>
        <mxCell id="pyP9cMPiVNIEUNAZ6Pnh-195" value="" style="endArrow=classic;html=1;rounded=0;entryX=1;entryY=0.5;entryDx=0;entryDy=0;exitX=0;exitY=0.5;exitDx=0;exitDy=0;strokeColor=#FF3333;" edge="1" parent="1" source="pyP9cMPiVNIEUNAZ6Pnh-158" target="pyP9cMPiVNIEUNAZ6Pnh-150">
          <mxGeometry width="50" height="50" relative="1" as="geometry">
            <mxPoint x="150" y="355" as="sourcePoint" />
            <mxPoint x="285" y="365" as="targetPoint" />
          </mxGeometry>
        </mxCell>
        <mxCell id="pyP9cMPiVNIEUNAZ6Pnh-196" value="" style="endArrow=classic;html=1;rounded=0;entryX=0.5;entryY=0;entryDx=0;entryDy=0;exitX=0.5;exitY=1;exitDx=0;exitDy=0;strokeColor=#FF3333;" edge="1" parent="1" source="pyP9cMPiVNIEUNAZ6Pnh-150" target="pyP9cMPiVNIEUNAZ6Pnh-28">
          <mxGeometry width="50" height="50" relative="1" as="geometry">
            <mxPoint x="160" y="365" as="sourcePoint" />
            <mxPoint x="115" y="365" as="targetPoint" />
          </mxGeometry>
        </mxCell>
        <mxCell id="pyP9cMPiVNIEUNAZ6Pnh-199" value="" style="endArrow=classic;html=1;rounded=0;exitX=0;exitY=0.5;exitDx=0;exitDy=0;entryX=1;entryY=0.5;entryDx=0;entryDy=0;" edge="1" parent="1" source="pyP9cMPiVNIEUNAZ6Pnh-85" target="pyP9cMPiVNIEUNAZ6Pnh-100">
          <mxGeometry width="50" height="50" relative="1" as="geometry">
            <mxPoint x="930" y="270" as="sourcePoint" />
            <mxPoint x="980" y="220" as="targetPoint" />
          </mxGeometry>
        </mxCell>
        <mxCell id="pyP9cMPiVNIEUNAZ6Pnh-200" value="" style="endArrow=classic;html=1;rounded=0;exitX=0;exitY=0.5;exitDx=0;exitDy=0;entryX=1;entryY=0.5;entryDx=0;entryDy=0;" edge="1" parent="1" source="pyP9cMPiVNIEUNAZ6Pnh-85" target="pyP9cMPiVNIEUNAZ6Pnh-108">
          <mxGeometry width="50" height="50" relative="1" as="geometry">
            <mxPoint x="1000" y="130" as="sourcePoint" />
            <mxPoint x="1050" y="80" as="targetPoint" />
          </mxGeometry>
        </mxCell>
        <mxCell id="pyP9cMPiVNIEUNAZ6Pnh-201" value="" style="endArrow=classic;html=1;rounded=0;entryX=1;entryY=0.5;entryDx=0;entryDy=0;exitX=0;exitY=0.5;exitDx=0;exitDy=0;strokeColor=#FF3333;" edge="1" parent="1" source="pyP9cMPiVNIEUNAZ6Pnh-85" target="pyP9cMPiVNIEUNAZ6Pnh-116">
          <mxGeometry width="50" height="50" relative="1" as="geometry">
            <mxPoint x="920" y="190" as="sourcePoint" />
            <mxPoint x="970" y="140" as="targetPoint" />
          </mxGeometry>
        </mxCell>
      </root>
    </mxGraphModel>
  </diagram>
</mxfile>
